<svg width="24" height="24" viewBox="0 0 24 24" fill="none" xmlns="http://www.w3.org/2000/svg">
<path fill-rule="evenodd" clip-rule="evenodd" d="M11.0001 2.75001C11.1211 2.75001 11.2412 2.75001 11.3604 2.75001C8.93042 5.00791 8.45914 8.67887 10.2399 11.4773C12.0208 14.2758 15.5458 15.4037 18.6204 14.1588C17.032 17.9805 12.858 20.034 8.86119 18.96C4.86435 17.8861 2.28177 14.017 2.82293 9.91392C3.36409 5.81084 6.86149 2.74367 11.0001 2.74268V2.75001Z" stroke="#3A4855" stroke-width="1.5" stroke-linecap="round" stroke-linejoin="round"/>
<path d="M15.5833 3.66675C15.5833 4.67927 16.4041 5.50008 17.4167 5.50008C16.4041 5.50008 15.5833 6.32089 15.5833 7.33341C15.5833 6.32089 14.7625 5.50008 13.75 5.50008C14.7625 5.50008 15.5833 4.67927 15.5833 3.66675" stroke="#3A4855" stroke-width="1.5" stroke-linecap="round" stroke-linejoin="round"/>
<path d="M17.4165 9.33341C17.0023 9.33341 16.6665 9.6692 16.6665 10.0834C16.6665 10.4976 17.0023 10.8334 17.4165 10.8334V9.33341ZM19.2498 10.8334C19.6641 10.8334 19.9998 10.4976 19.9998 10.0834C19.9998 9.6692 19.6641 9.33341 19.2498 9.33341V10.8334ZM19.0832 9.16675C19.0832 8.75253 18.7474 8.41675 18.3332 8.41675C17.919 8.41675 17.5832 8.75253 17.5832 9.16675H19.0832ZM17.5832 11.0001C17.5832 11.4143 17.919 11.7501 18.3332 11.7501C18.7474 11.7501 19.0832 11.4143 19.0832 11.0001H17.5832ZM17.4165 10.0834V10.8334H19.2498V10.0834V9.33341H17.4165V10.0834ZM18.3332 9.16675H17.5832V11.0001H18.3332H19.0832V9.16675H18.3332Z" fill="#3A4855"/>
</svg>
