<svg width="24" height="24" viewBox="0 0 24 24" fill="none" xmlns="http://www.w3.org/2000/svg">
<path d="M15.6562 15.5625H13.9688C13.7614 15.5625 13.5938 15.3949 13.5938 15.1875C13.5938 14.9801 13.7614 14.8125 13.9688 14.8125H15.6562C15.8636 14.8125 16.0312 14.9801 16.0312 15.1875C16.0312 15.3949 15.8636 15.5625 15.6562 15.5625Z" fill="#3A4855"/>
<path d="M13.1252 17.625C13.0776 17.625 13.0296 17.6163 12.9831 17.5972C12.7915 17.5188 12.6996 17.2998 12.778 17.1078L14.4655 12.9828C14.5442 12.7908 14.764 12.7001 14.9549 12.7777C15.1465 12.8561 15.2384 13.0751 15.16 13.2671L13.4725 17.3921C13.4132 17.5372 13.273 17.625 13.1252 17.625Z" fill="#3A4855"/>
<path d="M16.5002 17.6249C16.3525 17.6249 16.2122 17.5372 16.153 17.3921L14.4655 13.2671C14.3871 13.0751 14.479 12.8561 14.6706 12.7777C14.8626 12.6993 15.0816 12.7916 15.16 12.9828L16.8475 17.1078C16.9259 17.2998 16.834 17.5188 16.6424 17.5972C16.5959 17.6163 16.5475 17.6249 16.5002 17.6249Z" fill="#3A4855"/>
<path d="M7.50004 11.2501C7.34854 11.2501 7.20567 11.1578 7.14904 11.0071C7.07629 10.8128 7.17417 10.5968 7.36804 10.5245C8.70417 10.0227 9.69079 8.8392 9.94317 7.43445C9.97992 7.23083 10.1749 7.09395 10.3785 7.13108C10.5825 7.16783 10.7179 7.36245 10.6815 7.56683C10.3827 9.23033 9.21417 10.6328 7.63167 11.2268C7.58854 11.2426 7.54392 11.2501 7.50004 11.2501Z" fill="#3A4855"/>
<path d="M10.8749 11.2496C10.8314 11.2496 10.7868 11.2421 10.7433 11.226C9.16038 10.632 7.99188 9.22945 7.693 7.56595C7.65625 7.36158 7.79238 7.16695 7.996 7.1302C8.1985 7.0927 8.39463 7.22995 8.43138 7.43357C8.68375 8.83832 9.67038 10.0218 11.0065 10.5236C11.2004 10.5959 11.2986 10.8123 11.2259 11.0062C11.1696 11.1573 11.0268 11.2496 10.8749 11.2496Z" fill="#3A4855"/>
<path d="M10.875 7.875H7.5C7.293 7.875 7.125 7.70737 7.125 7.5C7.125 7.29263 7.293 7.125 7.5 7.125H10.875C11.0824 7.125 11.25 7.29263 11.25 7.5C11.25 7.70737 11.0824 7.875 10.875 7.875Z" fill="#3A4855"/>
<path d="M9.1875 7.875C8.9805 7.875 8.8125 7.70738 8.8125 7.5V6.75C8.8125 6.54263 8.9805 6.375 9.1875 6.375C9.39487 6.375 9.5625 6.54263 9.5625 6.75V7.5C9.5625 7.70738 9.39487 7.875 9.1875 7.875Z" fill="#3A4855"/>
<path d="M17.625 18.75C17.4176 18.75 17.25 18.5824 17.25 18.375V12C17.25 11.7926 17.4176 11.625 17.625 11.625C17.8324 11.625 18 11.7926 18 12V18.375C18 18.5824 17.8324 18.75 17.625 18.75Z" fill="#3A4855"/>
<path d="M17.625 18.75H12C11.7926 18.75 11.625 18.5824 11.625 18.375C11.625 18.1676 11.7926 18 12 18H17.625C17.8324 18 18 18.1676 18 18.375C18 18.5824 17.8324 18.75 17.625 18.75Z" fill="#3A4855"/>
<path d="M6.375 12.375C6.168 12.375 6 12.2074 6 12V5.625C6 5.41763 6.168 5.25 6.375 5.25C6.58237 5.25 6.75 5.41763 6.75 5.625V12C6.75 12.2074 6.58237 12.375 6.375 12.375Z" fill="#3A4855"/>
<path d="M12 6H6.375C6.168 6 6 5.83237 6 5.625C6 5.41763 6.168 5.25 6.375 5.25H12C12.2074 5.25 12.375 5.41763 12.375 5.625C12.375 5.83237 12.2074 6 12 6Z" fill="#3A4855"/>
<path d="M17.625 12.375H6.375C6.168 12.375 6 12.2074 6 12C6 11.7926 6.168 11.625 6.375 11.625H17.625C17.8324 11.625 18 11.7926 18 12C18 12.2074 17.8324 12.375 17.625 12.375Z" fill="#3A4855"/>
<path d="M12 18C11.7926 18 11.625 17.8324 11.625 17.625V6.375C11.625 6.16763 11.7926 6 12 6C12.2074 6 12.375 6.16763 12.375 6.375V17.625C12.375 17.8324 12.2074 18 12 18Z" fill="#3A4855"/>
<path d="M12.018 22.116C11.295 22.116 10.5671 21.8486 9.93827 21.3322C8.92015 20.4945 8.14352 19.2259 7.5634 17.4525C7.08977 16.0054 6.82165 14.4319 6.76615 12.7744C6.75752 12.5179 6.75302 12.2618 6.75002 12.0045C6.74777 11.7971 6.91427 11.6272 7.1209 11.625C7.33502 11.625 7.49777 11.7892 7.50002 11.9962C7.50302 12.2475 7.50715 12.498 7.51577 12.7493C7.56902 14.3355 7.82477 15.8392 8.2759 17.2192C8.81065 18.8524 9.51002 20.0085 10.4145 20.7525C11.1724 21.375 12.1031 21.5325 12.9068 21.1751C14.1671 20.6119 14.9025 19.2202 15.3461 18.2227C15.4309 18.0337 15.6525 17.949 15.8411 18.0322C16.0305 18.1166 16.1153 18.3382 16.0316 18.5272C15.5378 19.6376 14.7086 21.1916 13.2124 21.8599C12.828 22.0316 12.4238 22.116 12.018 22.116Z" fill="#3A4855"/>
<path d="M16.8751 12.3746C16.67 12.3746 16.5028 12.2099 16.5001 12.0041C16.4971 11.7528 16.4926 11.5023 16.4848 11.2503C16.4319 9.66518 16.1761 8.16181 15.7246 6.78106C15.1903 5.14831 14.4905 3.99256 13.5856 3.24706C12.8293 2.62531 11.8981 2.46706 11.0934 2.82518C9.83414 3.38543 9.09839 4.77856 8.65401 5.77681C8.56964 5.96656 8.34801 6.05131 8.15939 5.96731C7.97001 5.88293 7.88489 5.66206 7.96889 5.47231C8.46314 4.36043 9.29301 2.80568 10.7885 2.13968C11.8588 1.66418 13.0824 1.86143 14.0623 2.66843C15.0808 3.50693 15.8574 4.77631 16.4371 6.54743C16.9111 7.99531 17.1793 9.56956 17.234 11.2256C17.2426 11.4828 17.2471 11.7389 17.2501 11.9954C17.2524 12.2028 17.0863 12.3727 16.8796 12.3749C16.8781 12.3746 16.8766 12.3746 16.8751 12.3746Z" fill="#3A4855"/>
<path d="M6.375 12.375H2.25C2.043 12.375 1.875 12.2074 1.875 12C1.875 11.7926 2.043 11.625 2.25 11.625H6.375C6.58238 11.625 6.75 11.7926 6.75 12C6.75 12.2074 6.58238 12.375 6.375 12.375Z" fill="#3A4855"/>
<path d="M21.75 12.375H17.625C17.4176 12.375 17.25 12.2074 17.25 12C17.25 11.7926 17.4176 11.625 17.625 11.625H21.75C21.9574 11.625 22.125 11.7926 22.125 12C22.125 12.2074 21.9574 12.375 21.75 12.375Z" fill="#3A4855"/>
<path d="M12 22.125C11.7926 22.125 11.625 21.9574 11.625 21.75V17.625C11.625 17.4176 11.7926 17.25 12 17.25C12.2074 17.25 12.375 17.4176 12.375 17.625V21.75C12.375 21.9574 12.2074 22.125 12 22.125Z" fill="#3A4855"/>
<path d="M12 6.75C11.7926 6.75 11.625 6.58238 11.625 6.375V2.25C11.625 2.04263 11.7926 1.875 12 1.875C12.2074 1.875 12.375 2.04263 12.375 2.25V6.375C12.375 6.58238 12.2074 6.75 12 6.75Z" fill="#3A4855"/>
<path d="M12 8.27991C11.7949 8.27991 11.6277 8.11529 11.625 7.91016C11.622 7.70279 11.7882 7.53291 11.9952 7.52991C15.1362 7.48904 17.592 6.89054 19.503 5.70179C19.6782 5.59266 19.9099 5.64629 20.0194 5.82179C20.1289 5.99729 20.0749 6.22904 19.8994 6.33816C17.8692 7.60154 15.2865 8.23679 12.0049 8.27991C12.0034 8.27991 12.0015 8.27991 12 8.27991Z" fill="#3A4855"/>
<path d="M6.37485 7.38714C6.33473 7.38714 6.29348 7.38039 6.25335 7.36652C5.4996 7.10852 4.7751 6.76239 4.09973 6.33752C3.92423 6.22764 3.87173 5.99627 3.98198 5.82039C4.09223 5.64602 4.32323 5.59352 4.4991 5.70264C5.12573 6.09677 5.79773 6.41739 6.49673 6.65702C6.69248 6.72452 6.7971 6.93752 6.72998 7.13364C6.67635 7.28927 6.53085 7.38714 6.37485 7.38714Z" fill="#3A4855"/>
<path d="M4.29986 18.3548C4.17461 18.3548 4.05236 18.2918 3.98111 18.1774C3.87161 18.0015 3.92524 17.7709 4.10074 17.661C6.12911 16.3977 8.71136 15.7624 11.9952 15.7193C12.1929 15.7077 12.3725 15.8828 12.3751 16.0898C12.3777 16.2964 12.212 16.4663 12.005 16.4693C8.86211 16.5109 6.40624 17.1087 4.49749 18.2974C4.43599 18.3364 4.36736 18.3548 4.29986 18.3548Z" fill="#3A4855"/>
<path d="M19.7007 18.3552C19.6324 18.3552 19.5634 18.336 19.5016 18.2974C18.8749 17.904 18.2026 17.5827 17.5036 17.343C17.3078 17.2755 17.2032 17.0625 17.2703 16.8668C17.3374 16.6707 17.5504 16.5672 17.7469 16.6332C18.5007 16.8915 19.2252 17.238 19.9009 17.6622C20.0764 17.7728 20.1289 18.0042 20.0187 18.1793C19.9471 18.2929 19.8252 18.3552 19.7007 18.3552Z" fill="#3A4855"/>
<path d="M12.0207 22.116C9.94061 22.116 7.87436 21.4714 6.20224 20.3018C3.32261 18.2869 1.67261 14.856 1.89611 11.3479C2.11699 7.87464 4.16711 4.69802 7.24699 3.05739C8.68774 2.29052 10.3291 1.88477 11.9934 1.88477C13.8792 1.88477 15.7092 2.39514 17.2857 3.36189C20.2711 5.19264 22.1251 8.50239 22.1251 11.9996C22.1251 12.4309 22.0977 12.867 22.043 13.2938C21.6039 16.7348 19.3651 19.77 16.2009 21.2149C14.9101 21.8044 13.4645 22.116 12.0207 22.116ZM11.9934 2.63477C10.4514 2.63477 8.93224 3.00977 7.59949 3.71964C4.74761 5.23877 2.84899 8.17989 2.64461 11.3955C2.43761 14.6445 3.96574 17.8215 6.63236 19.6871C8.17961 20.7698 10.0932 21.366 12.0204 21.366C13.3576 21.366 14.696 21.078 15.8896 20.5324C18.8195 19.1951 20.8925 16.3845 21.299 13.1985C21.3496 12.8033 21.3751 12.3994 21.3751 11.9996C21.3751 8.76152 19.658 5.69627 16.8942 4.00164C15.4355 3.10727 13.7412 2.63477 11.9934 2.63477Z" fill="#3A4855"/>
</svg>
